<svg preserveAspectRatio="none" width="100%" height="100%" overflow="visible" style="display: block;" viewBox="0 0 23.6182 18" fill="none" xmlns="http://www.w3.org/2000/svg">
<path id="Vector" d="M19.984 1.49586C18.4881 0.798543 16.8686 0.292424 15.1815 0C15.1518 0.000422558 15.1235 0.0125504 15.1028 0.0337415C14.9003 0.404895 14.6641 0.88852 14.5067 1.25967C12.7173 0.989913 10.8975 0.989913 9.10808 1.25967C8.95062 0.877273 8.71443 0.404895 8.50073 0.0337415C8.48949 0.0112473 8.45574 0 8.422 0C6.73494 0.292424 5.12661 0.798543 3.6195 1.49586C3.60825 1.49586 3.597 1.50711 3.58576 1.51836C0.526548 6.09592 -0.316983 10.5498 0.0991589 14.9586C0.0991589 14.9811 0.110406 15.0036 0.1329 15.0149C2.15738 16.4995 4.10312 17.3992 6.02637 17.9953C6.06012 18.0066 6.09386 17.9953 6.1051 17.9728C6.55499 17.3543 6.95988 16.7019 7.30854 16.0159C7.33104 15.9709 7.30854 15.9259 7.26355 15.9146C6.62247 15.6672 6.01513 15.3748 5.41903 15.0374C5.37404 15.0149 5.37404 14.9474 5.40778 14.9136C5.5315 14.8237 5.65522 14.7224 5.77894 14.6325C5.80143 14.61 5.83517 14.61 5.85767 14.6212C9.72667 16.387 13.8993 16.387 17.7233 14.6212C17.7458 14.61 17.7796 14.61 17.8021 14.6325C17.9258 14.7337 18.0495 14.8237 18.1732 14.9249C18.2182 14.9586 18.2182 15.0261 18.162 15.0486C17.5771 15.3973 16.9585 15.6784 16.3175 15.9259C16.2725 15.9371 16.2612 15.9934 16.2725 16.0271C16.6324 16.7132 17.0373 17.3655 17.4759 17.9841C17.5097 17.9953 17.5434 18.0066 17.5771 17.9953C19.5116 17.3992 21.4574 16.4995 23.4819 15.0149C23.5043 15.0036 23.5156 14.9811 23.5156 14.9586C24.0105 9.86369 22.6946 5.44359 20.029 1.51836C20.0177 1.50711 20.0065 1.49586 19.984 1.49586ZM7.89339 12.2706C6.73494 12.2706 5.76769 11.2021 5.76769 9.88619C5.76769 8.57028 6.71245 7.50181 7.89339 7.50181C9.08558 7.50181 10.0303 8.58153 10.0191 9.88619C10.0191 11.2021 9.07434 12.2706 7.89339 12.2706ZM15.7326 12.2706C14.5742 12.2706 13.6069 11.2021 13.6069 9.88619C13.6069 8.57028 14.5517 7.50181 15.7326 7.50181C16.9248 7.50181 17.8696 8.58153 17.8583 9.88619C17.8583 11.2021 16.9248 12.2706 15.7326 12.2706Z" fill="var(--fill-0, #333333)"/>
</svg>
