<svg preserveAspectRatio="none" width="100%" height="100%" overflow="visible" style="display: block;" viewBox="0 0 36 36" fill="none" xmlns="http://www.w3.org/2000/svg">
<g id="Group">
<g id="Vector">
</g>
<path id="Vector_2" fill-rule="evenodd" clip-rule="evenodd" d="M18 6C19.2825 6 20.598 6.033 21.873 6.087L23.379 6.159L24.8205 6.2445L26.1705 6.336L27.4035 6.432C28.7418 6.53384 30.0012 7.10465 30.9599 8.0439C31.9187 8.98315 32.5152 10.2306 32.6445 11.5665L32.7045 12.204L32.817 13.569C32.922 14.9835 33 16.5255 33 18C33 19.4745 32.922 21.0165 32.817 22.431L32.7045 23.796L32.6445 24.4335C32.5152 25.7696 31.9184 27.0173 30.9594 27.9566C30.0003 28.8958 28.7405 29.4665 27.402 29.568L26.172 29.6625L24.822 29.7555L23.379 29.841L21.873 29.913C20.5827 29.9689 19.2915 29.9979 18 30C16.7085 29.9979 15.4173 29.9689 14.127 29.913L12.621 29.841L11.1795 29.7555L9.8295 29.6625L8.5965 29.568C7.25822 29.4662 5.9988 28.8953 5.04007 27.9561C4.08133 27.0168 3.48479 25.7694 3.3555 24.4335L3.2955 23.796L3.183 22.431C3.06875 20.9567 3.00771 19.4787 3 18C3 16.5255 3.078 14.9835 3.183 13.569L3.2955 12.204L3.3555 11.5665C3.48474 10.2308 4.08107 8.98358 5.03949 8.04436C5.99792 7.10514 7.25699 6.53417 8.595 6.432L9.8265 6.336L11.1765 6.2445L12.6195 6.159L14.1255 6.087C15.4163 6.03109 16.708 6.00208 18 6ZM15 14.3625V21.6375C15 22.3305 15.75 22.7625 16.35 22.4175L22.65 18.78C22.7871 18.7011 22.901 18.5874 22.9801 18.4505C23.0593 18.3136 23.101 18.1582 23.101 18C23.101 17.8418 23.0593 17.6864 22.9801 17.5495C22.901 17.4126 22.7871 17.2989 22.65 17.22L16.35 13.584C16.2131 13.505 16.0579 13.4634 15.8999 13.4634C15.7418 13.4634 15.5866 13.5051 15.4497 13.5841C15.3129 13.6632 15.1993 13.7769 15.1204 13.9138C15.0414 14.0507 14.9999 14.206 15 14.364V14.3625Z" fill="var(--fill-0, #F7F7F7)"/>
</g>
</svg>
