<svg width="3000" height="988" viewBox="0 0 3000 988" fill="none" xmlns="http://www.w3.org/2000/svg">
<path d="M1137.09 103.9V877.35H1085.65V515.96H132.051V877.34H80.6211V103.9H132.061V465.1H1085.66V103.9H1137.09ZM1034.32 103.9H982.881V362.09H234.941V103.9H183.501V412.95H1034.32V103.9ZM338.031 103.9H287.161V309.74H338.031V103.9ZM931.081 103.9H879.641V309.74H931.081V103.9ZM183.501 877.34H234.941V619.16H982.881V877.35H1034.32V567.72H183.501V877.34ZM879.221 877.34H930.661V670.93H879.221V877.34ZM286.751 877.34H338.191V670.93H286.751V877.34Z" fill="#1F1F1F"/>
<path d="M1422.94 103.88V331.3H1378.43V237.08H1286.23V331.3H1241.4V103.88H1286.23V194.2H1378.43V103.88H1422.94ZM1605.81 168.85V331.3H1563.9V313.11C1554.15 327.73 1537.26 335.85 1515.49 335.85C1481.05 335.85 1454.09 311.81 1454.09 268.6V168.86H1496V263.4C1496 285.5 1509.32 296.87 1528.16 296.87C1548.63 296.87 1563.9 284.85 1563.9 256.58V168.86H1605.81V168.85ZM1885.19 231.23V331.3H1843.28V234.16C1843.28 214.99 1833.53 203.3 1815.99 203.3C1797.47 203.3 1785.77 215.65 1785.77 240.01V331.3H1743.86V234.16C1743.86 214.99 1734.11 203.3 1716.57 203.3C1698.7 203.3 1686.03 215.65 1686.03 240.01V331.3H1644.12V168.85H1686.03V186.07C1695.13 172.43 1710.4 164.3 1731.19 164.3C1751.33 164.3 1766.28 172.75 1775.37 187.69C1785.44 173.07 1801.69 164.3 1823.78 164.3C1860.82 164.31 1885.19 190.62 1885.19 231.23ZM2086.24 168.85V331.3H2044.33V312.13C2032.63 326.75 2015.09 335.85 1991.37 335.85C1948.16 335.85 1912.42 298.49 1912.42 250.08C1912.42 201.67 1948.16 164.31 1991.37 164.31C2015.09 164.31 2032.63 173.41 2044.33 188.03V168.86H2086.24V168.85ZM2044.33 250.08C2044.33 222.79 2025.16 204.27 1999.17 204.27C1973.51 204.27 1954.34 222.79 1954.34 250.08C1954.34 277.37 1973.51 295.89 1999.17 295.89C2025.16 295.89 2044.33 277.37 2044.33 250.08ZM2275.93 231.56V331.3H2234.02V236.76C2234.02 214.67 2220.7 203.3 2201.86 203.3C2181.39 203.3 2166.12 215.32 2166.12 243.59V331.31H2124.21V168.85H2166.12V187.04C2175.87 172.42 2192.76 164.3 2214.53 164.3C2248.97 164.31 2275.93 188.35 2275.93 231.56ZM1316.47 525.36H1286.22V604.31H1241.39V376.89H1336.23C1378.14 376.89 1411.93 410.68 1411.93 452.26C1411.93 480.85 1394.06 506.52 1368.07 518.54L1418.43 604.31H1370.02L1316.47 525.36ZM1286.22 486.05H1336.22C1353.11 486.05 1367.08 471.1 1367.08 452.26C1367.08 433.42 1353.11 418.8 1336.22 418.8H1286.22V486.05ZM1437.88 396.71C1437.88 382.74 1453.45 370.72 1467.42 370.72C1481.71 370.72 1489.54 382.74 1489.54 396.71C1489.54 410.68 1477.84 422.38 1463.55 422.38C1449.58 422.38 1437.88 410.68 1437.88 396.71ZM1442.76 441.87H1484.67V604.32H1442.76V441.87ZM1681.86 441.87V596.52C1681.86 649.8 1639.95 673.85 1597.06 673.85C1562.29 673.85 1534.36 660.53 1520.06 634.21L1555.8 613.74C1562.62 626.41 1573.34 636.48 1598.36 636.48C1624.67 636.48 1640.92 622.19 1640.92 596.52V578.98C1629.55 594.25 1612 603.67 1588.94 603.67C1542.8 603.67 1508.04 566.31 1508.04 520.5C1508.04 475.02 1542.8 437.33 1588.94 437.33C1612.01 437.33 1629.55 446.75 1640.92 462.02V441.88H1681.86V441.87ZM1640.92 520.49C1640.92 494.82 1621.75 476.31 1595.43 476.31C1569.12 476.31 1549.95 494.83 1549.95 520.49C1549.95 546.48 1569.12 565 1595.43 565C1621.75 565 1640.92 546.48 1640.92 520.49ZM1871.55 504.57V604.31H1829.64V509.77C1829.64 487.68 1816.32 476.31 1797.48 476.31C1777.01 476.31 1761.74 488.33 1761.74 516.6V604.32H1719.83V376.89H1761.74V460.06C1771.49 445.44 1788.38 437.32 1810.15 437.32C1844.59 437.32 1871.55 461.36 1871.55 504.57ZM1963.46 482.15V549.73C1963.46 567.27 1976.13 567.6 2000.17 566.3V604.31C1941.36 610.81 1921.55 593.59 1921.55 549.73V482.15H1893.28V441.86H1921.55V409.05L1963.46 396.38V441.86H2000.17V482.15H1963.46ZM2148.63 556.88C2148.63 591.97 2118.09 608.86 2083.32 608.86C2050.83 608.86 2026.79 595.22 2015.1 570.2L2051.49 549.73C2056.04 563.05 2067.09 570.85 2083.33 570.85C2096.65 570.85 2105.75 566.3 2105.75 556.88C2105.75 533.16 2021.93 546.16 2021.93 488.98C2021.93 455.84 2050.2 437.32 2083.66 437.32C2109.98 437.32 2132.72 449.34 2145.39 471.76L2109.65 491.25C2104.77 480.85 2095.68 474.68 2083.66 474.68C2073.26 474.68 2064.82 479.23 2064.82 488C2064.81 512.04 2148.63 497.1 2148.63 556.88ZM1286.22 692.79V746.72H1382.33V789.61H1286.22V877.33H1241.39V649.9H1384.93V692.78H1286.22V692.79ZM1400.82 796.1C1400.82 747.69 1438.83 710.33 1486.59 710.33C1534.35 710.33 1572.69 747.69 1572.69 796.1C1572.69 844.51 1534.35 881.87 1486.59 881.87C1438.83 881.87 1400.82 844.51 1400.82 796.1ZM1530.78 796.1C1530.78 769.79 1511.61 751.27 1486.59 751.27C1461.9 751.27 1442.73 769.79 1442.73 796.1C1442.73 822.42 1461.9 840.93 1486.59 840.93C1511.61 840.94 1530.78 822.42 1530.78 796.1ZM1744.84 714.88V877.33H1702.93V859.14C1693.18 873.76 1676.29 881.88 1654.52 881.88C1620.08 881.88 1593.12 857.84 1593.12 814.63V714.89H1635.03V809.43C1635.03 831.53 1648.35 842.9 1667.19 842.9C1687.66 842.9 1702.93 830.88 1702.93 802.61V714.89H1744.84V714.88ZM1934.86 777.58V877.32H1892.95V782.78C1892.95 760.69 1879.63 749.32 1860.79 749.32C1840.32 749.32 1825.05 761.34 1825.05 789.61V877.33H1783.14V714.88H1825.05V733.07C1834.8 718.45 1851.69 710.33 1873.46 710.33C1907.9 710.33 1934.86 734.37 1934.86 777.58ZM2135.61 649.9V877.32H2093.7V858.15C2082 873.1 2064.78 881.87 2041.07 881.87C1997.53 881.87 1961.8 844.51 1961.8 796.1C1961.8 747.69 1997.54 710.33 2041.07 710.33C2064.79 710.33 2082.01 719.1 2093.7 734.05V649.9H2135.61ZM2093.7 796.1C2093.7 768.81 2074.53 750.29 2048.86 750.29C2022.87 750.29 2003.7 768.81 2003.7 796.1C2003.7 823.39 2022.87 841.91 2048.86 841.91C2074.53 841.92 2093.7 823.4 2093.7 796.1ZM2337.35 714.88V877.33H2295.44V858.16C2283.74 872.78 2266.2 881.88 2242.48 881.88C2199.27 881.88 2163.53 844.52 2163.53 796.11C2163.53 747.7 2199.27 710.34 2242.48 710.34C2266.2 710.34 2283.74 719.44 2295.44 734.06V714.89H2337.35V714.88ZM2295.44 796.1C2295.44 768.81 2276.27 750.29 2250.28 750.29C2224.62 750.29 2205.45 768.81 2205.45 796.1C2205.45 823.39 2224.62 841.91 2250.28 841.91C2276.27 841.92 2295.44 823.4 2295.44 796.1ZM2433.46 755.17V822.75C2433.46 840.29 2446.13 840.62 2470.17 839.32V877.33C2411.36 883.83 2391.55 866.61 2391.55 822.75V755.17H2363.29V714.88H2391.55V682.07L2433.46 669.4V714.88H2470.17V755.17H2433.46ZM2494.84 669.72C2494.84 655.75 2506.54 643.73 2520.51 643.73C2534.8 643.73 2546.5 655.75 2546.5 669.72C2546.5 683.69 2534.8 695.38 2520.51 695.38C2506.54 695.39 2494.84 683.69 2494.84 669.72ZM2499.71 714.88H2541.62V877.33H2499.71V714.88ZM2565 796.1C2565 747.69 2603.01 710.33 2650.77 710.33C2698.53 710.33 2736.87 747.69 2736.87 796.1C2736.87 844.51 2698.53 881.87 2650.77 881.87C2603.01 881.87 2565 844.51 2565 796.1ZM2694.96 796.1C2694.96 769.79 2675.79 751.27 2650.77 751.27C2626.08 751.27 2606.91 769.79 2606.91 796.1C2606.91 822.42 2626.08 840.93 2650.77 840.93C2675.79 840.94 2694.96 822.42 2694.96 796.1ZM2911.62 777.58V877.32H2869.71V782.78C2869.71 760.69 2856.39 749.32 2837.55 749.32C2817.08 749.32 2801.81 761.34 2801.81 789.61V877.33H2759.9V714.88H2801.81V733.07C2811.56 718.45 2828.45 710.33 2850.22 710.33C2884.66 710.33 2911.62 734.37 2911.62 777.58Z" fill="#1F1F1F"/>
</svg>
