<svg preserveAspectRatio="none" width="100%" height="100%" overflow="visible" style="display: block;" viewBox="0 0 36 36" fill="none" xmlns="http://www.w3.org/2000/svg">
<g id="mdi:linkedin">
<path id="Vector" d="M28.5 4.5C29.2956 4.5 30.0587 4.81607 30.6213 5.37868C31.1839 5.94129 31.5 6.70435 31.5 7.5V28.5C31.5 29.2956 31.1839 30.0587 30.6213 30.6213C30.0587 31.1839 29.2956 31.5 28.5 31.5H7.5C6.70435 31.5 5.94129 31.1839 5.37868 30.6213C4.81607 30.0587 4.5 29.2956 4.5 28.5V7.5C4.5 6.70435 4.81607 5.94129 5.37868 5.37868C5.94129 4.81607 6.70435 4.5 7.5 4.5H28.5ZM27.75 27.75V19.8C27.75 18.5031 27.2348 17.2593 26.3178 16.3422C25.4007 15.4252 24.1569 14.91 22.86 14.91C21.585 14.91 20.1 15.69 19.38 16.86V15.195H15.195V27.75H19.38V20.355C19.38 19.2 20.31 18.255 21.465 18.255C22.022 18.255 22.5561 18.4762 22.9499 18.8701C23.3438 19.2639 23.565 19.798 23.565 20.355V27.75H27.75ZM10.32 12.84C10.9883 12.84 11.6293 12.5745 12.1019 12.1019C12.5745 11.6293 12.84 10.9883 12.84 10.32C12.84 8.925 11.715 7.785 10.32 7.785C9.64768 7.785 9.00289 8.05208 8.52748 8.52748C8.05208 9.00289 7.785 9.64768 7.785 10.32C7.785 11.715 8.925 12.84 10.32 12.84ZM12.405 27.75V15.195H8.25V27.75H12.405Z" fill="var(--fill-0, #F7F7F7)"/>
</g>
</svg>
