<svg preserveAspectRatio="none" width="100%" height="100%" overflow="visible" style="display: block;" viewBox="0 0 36 36" fill="none" xmlns="http://www.w3.org/2000/svg">
<g id="mdi:twitter">
<path id="Vector" d="M33.6925 9C32.5375 9.525 31.2925 9.87 30.0025 10.035C31.3225 9.24 32.3425 7.98 32.8225 6.465C31.5775 7.215 30.1975 7.74 28.7425 8.04C27.5575 6.75 25.8925 6 24.0025 6C20.4775 6 17.5975 8.88 17.5975 12.435C17.5975 12.945 17.6575 13.44 17.7625 13.905C12.4225 13.635 7.6675 11.07 4.5025 7.185C3.9475 8.13 3.6325 9.24 3.6325 10.41C3.6325 12.645 4.7575 14.625 6.4975 15.75C5.4325 15.75 4.4425 15.45 3.5725 15V15.045C3.5725 18.165 5.7925 20.775 8.7325 21.36C7.78876 21.6194 6.79756 21.6554 5.8375 21.465C6.24491 22.7437 7.04281 23.8626 8.11902 24.6644C9.19524 25.4662 10.4957 25.9105 11.8375 25.935C9.563 27.7358 6.74351 28.7091 3.8425 28.695C3.3325 28.695 2.8225 28.665 2.3125 28.605C5.1625 30.435 8.5525 31.5 12.1825 31.5C24.0025 31.5 30.4975 21.69 30.4975 13.185C30.4975 12.9 30.4975 12.63 30.4825 12.345C31.7425 11.445 32.8225 10.305 33.6925 9Z" fill="var(--fill-0, #F7F7F7)"/>
</g>
</svg>
