<svg width="351" height="268" viewBox="0 0 351 268" fill="none" xmlns="http://www.w3.org/2000/svg">
<path d="M296.175 22.8551C274.008 12.5116 250.008 5.00413 225.007 0.666504C224.567 0.672772 224.148 0.852668 223.84 1.167C220.84 6.67245 217.34 13.8462 215.007 19.3517C188.489 15.3502 161.522 15.3502 135.004 19.3517C132.671 13.6794 129.171 6.67245 126.004 1.167C125.837 0.833339 125.337 0.666504 124.837 0.666504C99.8367 5.00413 76.0027 12.5116 53.6688 22.8551C53.5021 22.8551 53.3354 23.022 53.1688 23.1888C7.8342 91.0893 -4.66614 157.155 1.50069 222.553C1.50069 222.886 1.66736 223.22 2.00071 223.387C32.0015 245.409 60.8357 258.755 89.3364 267.597C89.8365 267.764 90.3365 267.597 90.5031 267.264C97.17 258.088 103.17 248.412 108.337 238.235C108.67 237.568 108.337 236.9 107.67 236.733C98.17 233.063 89.1698 228.726 80.3362 223.721C79.6695 223.387 79.6695 222.386 80.1695 221.885C82.0029 220.551 83.8363 219.049 85.6697 217.715C86.003 217.381 86.503 217.381 86.8364 217.548C144.171 243.74 206.006 243.74 262.675 217.548C263.008 217.381 263.508 217.381 263.841 217.715C265.675 219.216 267.508 220.551 269.341 222.052C270.008 222.553 270.008 223.554 269.175 223.887C260.508 229.059 251.341 233.23 241.841 236.9C241.174 237.067 241.007 237.901 241.174 238.402C246.507 248.579 252.508 258.255 259.008 267.431C259.508 267.597 260.008 267.764 260.508 267.597C289.175 258.755 318.009 245.409 348.01 223.387C348.344 223.22 348.51 222.886 348.51 222.553C355.844 146.978 336.343 81.4131 296.842 23.1888C296.675 23.022 296.509 22.8551 296.175 22.8551ZM117.004 182.68C99.8367 182.68 85.503 166.831 85.503 147.312C85.503 127.792 99.5034 111.943 117.004 111.943C134.671 111.943 148.671 127.959 148.505 147.312C148.505 166.831 134.504 182.68 117.004 182.68ZM233.174 182.68C216.007 182.68 201.673 166.831 201.673 147.312C201.673 127.792 215.673 111.943 233.174 111.943C250.841 111.943 264.841 127.959 264.675 147.312C264.675 166.831 250.841 182.68 233.174 182.68Z" fill="#333333"/>
</svg>
